<svg xmlns="http://www.w3.org/2000/svg" x="0px" y="0px" viewBox="0 0 363.5 64.9">
<style type="text/css">
.st0{fill:#D4D81D;}
.st1{fill:#383838;}
.st2{fill:#717199;}
</style>
<polygon class="st0" points="303.2,9.5 304.3,44.9 310.3,44.9 308.9,9.5 316.7,8.9 315.8,2.1 295.9,2.8 295.9,9.8      "/>
<polygon class="st0" points="304.3,46 301.1,53.9 313.4,52.9 310.6,46"/>
<polygon class="st0" points="298,55.6 297.8,59.3 321.6,58.5 321.6,54.4"/>
<path class="st0" d="M333.2,0.2L325,0l-9.3,53.2l5.9,0.2l1.8-11.7l7.5,0.2l1.6,13.6h6.2L333.2,0.2z M324.6,34.9l4-22.9l1.9,23.3 L324.6,34.9z"/>
<path class="st0" d="M363.5,45.3c-0.5-10-1.8-12.1-6.1-15.1c0,0,3.9-3.7,4.5-9.5c0.6-5.8-1.2-10.4-1.2-10.4s-2-4.9-6.8-5.6 c-6.3-0.8-11.6-0.2-11.6-0.2L344,58l12.3-0.7C356.2,57.3,364,55.3,363.5,45.3z M348.3,11.1c5.9-0.6,6.4,1.8,6.8,2.3 c0.4,0.4,0.8,3.6,1,5.4s-0.4,4.9-1.6,6.8s-5.6,1.4-5.6,1.4L348.3,11.1z M354.9,49.8c-1.3,0.9-5.3,1-5.3,1l-0.6-17 c0,0,1.8,0,4.4,0.4s3.4,3.4,3.4,3.4s0.6,5.1,0.6,7.3S356.2,48.9,354.9,49.8z"/>
<polygon class="st1" points="255.7,3 257.4,55.2 263.3,55.2 262.6,32.2 270.1,31.8 271.1,56.3 276.7,56 275.1,3.9 268.9,3.8 269.7,24.8 262.4,25.2 261.4,3"/>
<path class="st1" d="M252,46.5c-0.4-3.5,0.4-13.9-3.1-17.1c2.7-2.4,3.7-7.9,3.5-11.8c-0.2-3.9-0.8-8.5-1.8-10.6s-2.8-5.1-6.7-5.3 s-12.2,0.4-12.2,0.4l3,52.9l6.1,0.6l-1.3-23.4l3.7-0.3c0,0,3,2.7,2.9,8c-0.1,5.3,0,12.4,4.1,15.8c5.1-0.3,6-0.5,6-0.5 S252.4,50,252,46.5z M244.2,24.4c-1.5,1.1-5,1-5,1l-1-16.7c0,0,1.6-0.2,3.9,0c3.9,0.6,3.9,4.7,4.1,7.9 C246.3,19.9,245.8,23.3,244.2,24.4z"/>
<path class="st1" d="M226,4l-8.3-0.4l-9.3,53.5h6l1.9-11.8l7.3,0.3l1.7,13.7h6L226,4z M217.3,38.5l4-23.1l1.9,23.4L217.3,38.5z"/>
<circle class="st1" cx="187.1" cy="19.8" r="5.3"/>
<circle class="st1" cx="187.1" cy="38.7" r="5.3"/>
<polygon class="st1" points="284.3,56.6 289.7,56.2 289.7,16.7 295.9,16.4 287.2,0.6 279.1,17.2 284.3,17"/>
<polygon class="st1" points="47.3,3 49,55.2 54.9,55.2 54.2,32.2 61.6,31.8 62.6,56.3 68.3,56 66.6,3.9 60.5,3.8 61.3,24.8 54,25.2 53,3"/>
<path class="st1" d="M43.6,46.5c-0.4-3.5,0.4-13.9-3.1-17.1c2.7-2.4,3.7-7.9,3.5-11.8c-0.2-3.9-0.8-8.5-1.8-10.6s-2.8-5.1-6.7-5.3 S23.3,2.1,23.3,2.1l3,52.9l6.1,0.6l-1.3-23.4l3.7-0.3c0,0,3,2.7,2.9,8c-0.1,5.3,0,12.4,4.1,15.8c5.1-0.3,6-0.5,6-0.5 S44,50,43.6,46.5z M35.8,24.4c-1.5,1.1-5,1-5,1l-1-16.7c0,0,1.6-0.2,3.9,0c3.9,0.6,3.9,4.7,4.1,7.9C37.9,19.9,37.3,23.3,35.8,24.4 z"/>
<path class="st1" d="M17.6,3L9.3,2.6L0,56.1h6l1.9-11.8l7.3,0.3l1.7,13.7h6L17.6,3z M8.9,37.5l4-23.1l1.9,23.4L8.9,37.5z"/>
<polygon class="st1" points="75.9,56.6 81.3,56.2 81.3,16.7 87.5,16.4 78.8,0.6 70.6,17.2 75.9,17"/>
<path class="st2" d="M157,4.1l-8.2-0.2l-9.3,53.2l5.9,0.2l1.8-11.7l7.5,0.2l1.6,13.6h6.2L157,4.1z M148.4,38.8l4-22.9l1.9,23.3 L148.4,38.8z"/>
<polygon class="st2" points="114.3,4.1 115,60.6 120.1,60.6 120.1,25.5 129.6,59.5 135.5,59.8 135,5.6 129.3,5.2 129.8,41.3 119.8,4.1"/>
<path class="st2" d="M102,16.6l6,0.3c0,0-0.3-13.6-9.1-13.5c-8.8,0-9.4,11.3-9.4,11.3s-0.9,8.2,8,18.4c10.3,11.8,5.5,18.2,2,18.2 c-2.4,0-4.7-1.9-5.1-8.2c-4.1-0.1-5.5,0.1-5.5,0.1s0,14.7,10.8,14.9c9.7,0.2,10.9-11.6,9.7-16.2c-2.9-10.6-10.9-15.1-13.1-22.4 c-1.1-3.5-1.3-7.3,0.3-8.5C98.4,9.6,102.8,9.9,102,16.6z"/>
<path class="st2" d="M87.7,60.9c0.2,0.4,0,4,0,4l24-1.3v-3.9L87.7,60.9z"/>
</svg>